<svg width="42" height="42" viewBox="0 0 42 42" fill="none" xmlns="http://www.w3.org/2000/svg">
<path fill-rule="evenodd" clip-rule="evenodd" d="M21.8168 12.3333C23.1616 12.3333 24.203 12.3333 23.0388 12.3333H22.0833H29.6667C31.4617 12.3333 32.9167 13.7884 32.9167 15.5833V28.5833C32.9167 30.3783 31.4617 31.8333 29.6667 31.8333H12.3333C10.5384 31.8333 9.08334 30.3783 9.08334 28.5833V15.5833C9.08334 13.7884 10.5384 12.3333 12.3333 12.3333H19.9167C19.1617 12.3333 17.7682 12.3333 19.113 12.3333C20.4578 12.3333 19.8034 12.3333 21 12.3333C22.1967 12.3333 20.4719 12.3333 21.8168 12.3333ZM12.3333 14.5H19.9167H22.0833H29.6667C30.265 14.5 30.75 14.985 30.75 15.5833V28.5833C30.75 29.1816 30.265 29.6666 29.6667 29.6666H12.3333C11.735 29.6666 11.25 29.1816 11.25 28.5833V15.5833C11.25 14.985 11.735 14.5 12.3333 14.5ZM24.25 20.4583C24.25 19.5609 24.9776 18.8333 25.875 18.8333C26.7724 18.8333 27.5 19.5609 27.5 20.4583C27.5 21.3557 26.7724 22.0833 25.875 22.0833C24.9776 22.0833 24.25 21.3557 24.25 20.4583ZM25.875 16.6666C23.7809 16.6666 22.0833 18.3642 22.0833 20.4583C22.0833 22.5524 23.7809 24.25 25.875 24.25C27.9691 24.25 29.6667 22.5524 29.6667 20.4583C29.6667 18.3642 27.9691 16.6666 25.875 16.6666ZM16.125 18.8333C15.2275 18.8333 14.5 19.5609 14.5 20.4583C14.5 21.3557 15.2275 22.0833 16.125 22.0833C17.0225 22.0833 17.75 21.3557 17.75 20.4583C17.75 19.5609 17.0225 18.8333 16.125 18.8333ZM12.3333 20.4583C12.3333 18.3642 14.0309 16.6666 16.125 16.6666C18.2191 16.6666 19.9167 18.3642 19.9167 20.4583C19.9167 22.5524 18.2191 24.25 16.125 24.25C14.0309 24.25 12.3333 22.5524 12.3333 20.4583ZM19.8023 25.9322C19.5347 25.397 18.884 25.1801 18.3489 25.4477C17.8137 25.7153 17.5968 26.3659 17.8644 26.9011C18.4872 28.1468 19.8974 28.5833 21 28.5833C22.1026 28.5833 23.5128 28.1468 24.1356 26.9011C24.4032 26.3659 24.1863 25.7153 23.6511 25.4477C23.116 25.1801 22.4653 25.397 22.1977 25.9322C22.0984 26.1309 21.7029 26.4166 21 26.4166C20.2971 26.4166 19.9016 26.1309 19.8023 25.9322Z" fill="black"/>
<path d="M36.2772 15.9701V14.3559C36.2772 10.4911 34.8233 6.89964 32.1873 4.23542C29.4853 1.50036 25.7705 0 21.7182 0H20.3006C16.2483 0 12.5336 1.50036 9.83156 4.23542C7.19546 6.89964 5.74158 10.4911 5.74158 14.3559V15.9701C4.18573 16.07 2.72803 16.7212 1.66249 17.7922C0.596952 18.8632 0.00284709 20.2745 0 21.7413V24.2651C0.00249002 25.797 0.650572 27.2655 1.8022 28.3488C2.95383 29.432 4.51507 30.0416 6.14372 30.0439H9.60561C9.90395 30.0432 10.1899 29.9315 10.4008 29.733C10.6118 29.5346 10.7306 29.2657 10.7313 28.9851V17.0113C10.7306 16.7306 10.6118 16.4617 10.4008 16.2633C10.1899 16.0649 9.90395 15.9531 9.60561 15.9524H7.99167V14.3559C7.99167 7.37657 13.2827 2.11771 20.2899 2.11771H21.7061C28.7227 2.11771 34.0043 7.37657 34.0043 14.3559V15.9524H32.3944C32.096 15.9531 31.8101 16.0649 31.5992 16.2633C31.3882 16.4617 31.2694 16.7306 31.2687 17.0113V28.9762C31.2694 29.2568 31.3882 29.5258 31.5992 29.7242C31.8101 29.9226 32.096 30.0344 32.3944 30.0351H33.9707C33.5107 35.5583 29.4678 36.8386 27.5916 37.1295C27.3324 36.3824 26.8285 35.7316 26.152 35.2703C25.4756 34.809 24.6613 34.5609 23.8257 34.5614H21.0148C19.9661 34.5614 18.9603 34.9533 18.2188 35.6508C17.4772 36.3483 17.0606 37.2943 17.0606 38.2807C17.0606 39.2671 17.4772 40.2132 18.2188 40.9106C18.9603 41.6082 19.9661 42 21.0148 42H23.8392C24.7046 41.9983 25.5456 41.7299 26.2334 41.236C26.9213 40.742 27.4182 40.0497 27.6481 39.2649C28.9923 39.0889 30.2883 38.6729 31.4664 38.0391C33.5026 36.9183 35.9128 34.6336 36.2315 30.0275C37.793 29.9358 39.2586 29.288 40.3302 28.2158C41.4018 27.1437 41.9989 25.7278 42 24.2563V21.7325C42.0027 20.2679 41.4127 18.8573 40.3499 17.787C39.287 16.7168 37.8309 16.0672 36.2772 15.9701ZM8.50006 27.9173H6.16792C5.13489 27.9173 4.14404 27.5319 3.41281 26.8455C2.68159 26.1591 2.26972 25.2279 2.26758 24.2563V21.7325C2.26936 20.7606 2.68108 19.8291 3.41234 19.1424C4.1436 18.4558 5.13465 18.0701 6.16792 18.0701H8.5041L8.50006 27.9173ZM23.8325 39.8823H21.0081C20.5577 39.8823 20.1258 39.714 19.8074 39.4145C19.489 39.115 19.3101 38.7087 19.3101 38.2852C19.3101 37.8616 19.489 37.4553 19.8074 37.1558C20.1258 36.8563 20.5577 36.688 21.0081 36.688H23.8325C24.2828 36.688 24.7147 36.8563 25.0331 37.1558C25.3515 37.4553 25.5304 37.8616 25.5304 38.2852C25.5304 38.7087 25.3515 39.115 25.0331 39.4145C24.7147 39.714 24.2828 39.8823 23.8325 39.8823ZM39.7566 24.2563C39.7548 25.2271 39.344 26.1576 38.6142 26.8441C37.8844 27.5306 36.8951 27.9169 35.863 27.9186H33.5282V18.0701H35.8643C36.8964 18.0718 37.8858 18.4582 38.6156 19.1446C39.3454 19.8311 39.7562 20.7617 39.758 21.7325L39.7566 24.2563Z" fill="black"/>
</svg>
