<svg width="29" height="29" viewBox="0 0 29 29" fill="none" xmlns="http://www.w3.org/2000/svg">
<path d="M28.9997 14.4103C28.9658 11.63 28.1429 8.91743 26.628 6.59194C25.1131 4.26645 22.9694 2.42492 20.4492 1.28424C17.9289 0.143567 15.1372 -0.24875 12.4027 0.15347C9.66838 0.555708 7.10514 1.73572 5.01496 3.5546C2.92476 5.37347 1.39465 7.75542 0.604834 10.4199C-0.184968 13.0845 -0.201607 15.9205 0.55691 18.5943C1.31543 21.268 2.81749 23.6678 4.88621 25.5114C6.95491 27.355 9.50414 28.5654 12.2336 29V18.6595H8.60854V14.4103H12.2336V11.1823C12.1497 10.4318 12.2305 9.67183 12.4705 8.95613C12.7105 8.24043 13.1037 7.58645 13.6222 7.04034C14.1408 6.49421 14.7721 6.06927 15.4718 5.79551C16.1714 5.52173 16.9223 5.4058 17.6713 5.45592C18.7585 5.47089 19.8431 5.56844 20.9158 5.74771V9.39514H19.1032C18.7907 9.35547 18.4732 9.38698 18.1744 9.48734C17.8756 9.5877 17.603 9.75434 17.3767 9.97493C17.1505 10.1955 16.9765 10.4645 16.8676 10.7618C16.7585 11.0592 16.7173 11.3775 16.7469 11.693V14.4468H20.7708L20.1182 18.696H16.765V28.9088C20.1906 28.3637 23.3085 26.6013 25.5532 23.9412C27.7978 21.2811 29.0206 17.8998 28.9997 14.4103Z" fill="#EBEBEB"/>
</svg>
