<svg width="38" height="38" viewBox="0 0 38 38" fill="none" xmlns="http://www.w3.org/2000/svg">
<path d="M37.9997 18.8825C37.9552 15.2394 36.877 11.6849 34.8919 8.63772C32.9068 5.59052 30.0978 3.17748 26.7955 1.6828C23.493 0.188122 19.8349 -0.325949 16.2519 0.201098C12.6689 0.728169 9.31018 2.2744 6.57132 4.65776C3.83244 7.04109 1.82748 10.1623 0.792541 13.6537C-0.242371 17.1451 -0.264175 20.8614 0.729744 24.3649C1.72366 27.8684 3.69188 31.013 6.40262 33.4288C9.11333 35.8445 12.4537 37.4305 16.0303 38V24.4504H11.2802V18.8825H16.0303V14.6527C15.9203 13.6692 16.0262 12.6734 16.3407 11.7356C16.6552 10.7978 17.1703 9.94087 17.8498 9.22527C18.5293 8.50965 19.3566 7.95283 20.2733 7.59412C21.1901 7.23537 22.1741 7.08346 23.1555 7.14913C24.58 7.16875 26.0013 7.29658 27.4069 7.53148V12.3109H25.0318C24.6223 12.2589 24.2062 12.3002 23.8148 12.4317C23.4231 12.5632 23.0659 12.7815 22.7695 13.0706C22.4731 13.3597 22.2451 13.712 22.1024 14.1016C21.9594 14.4914 21.9055 14.9084 21.9442 15.3218V18.9302H27.2168L26.3618 24.4982H21.9679V37.8805C26.4566 37.1662 30.5422 34.8568 33.4835 31.3712C36.4247 27.8856 38.027 23.4549 37.9997 18.8825Z" fill="black"/>
</svg>
