<svg width="30" height="29" viewBox="0 0 30 29" fill="none" xmlns="http://www.w3.org/2000/svg">
<path d="M14.6057 0C6.53835 0 0 6.49102 0 14.5C0 22.509 6.53835 29 14.6057 29C22.6731 29 29.2115 22.509 29.2115 14.5C29.2115 6.49102 22.6731 0 14.6057 0ZM23.7229 23.5455C22.5362 24.7236 21.1612 25.6469 19.6264 26.2869C18.0404 26.9553 16.3516 27.2895 14.6057 27.2895C12.8656 27.2895 11.1768 26.9496 9.58501 26.2869C8.05027 25.6412 6.66957 24.718 5.48856 23.5455C4.30184 22.3674 3.37187 21.0023 2.72716 19.4787C2.05393 17.9041 1.71161 16.2275 1.71161 14.5C1.71161 12.7725 2.05393 11.0959 2.72146 9.51562C3.37187 7.99199 4.30184 6.62129 5.48285 5.44883C6.67527 4.2707 8.05027 3.34746 9.58501 2.70176C11.1768 2.03906 12.8656 1.69922 14.6057 1.69922C16.3459 1.69922 18.0347 2.03906 19.6264 2.70176C21.1612 3.34746 22.5419 4.2707 23.7229 5.44316C24.9096 6.62129 25.8396 7.98633 26.4843 9.50996C27.1575 11.0846 27.4941 12.7611 27.4941 14.4943C27.4941 16.2219 27.1518 17.8984 26.4843 19.4787C25.8339 21.0023 24.9039 22.373 23.7229 23.5455Z" fill="#EBEBEB"/>
<path fill-rule="evenodd" clip-rule="evenodd" d="M21.3 10.9474L14.5 16.9203L7.7 10.9389V10.7H21.3V10.9474ZM7.7 20.05V13.2033L14.5 19.183L21.3 13.2101V20.05H7.7ZM6 21.75H23V9H6V21.75Z" fill="#EBEBEB"/>
</svg>
