<svg width="38" height="38" viewBox="0 0 38 38" fill="none" xmlns="http://www.w3.org/2000/svg">
<path d="M19 0C8.50547 0 0 8.50547 0 19C0 29.4945 8.50547 38 19 38C29.4945 38 38 29.4945 38 19C38 8.50547 29.4945 0 19 0ZM30.8602 30.8527C29.3164 32.3965 27.5277 33.6062 25.5312 34.4449C23.468 35.3207 21.2711 35.7586 19 35.7586C16.7363 35.7586 14.5395 35.3133 12.4688 34.4449C10.4723 33.5988 8.67617 32.3891 7.13984 30.8527C5.59609 29.309 4.38633 27.5203 3.54766 25.5238C2.67188 23.4605 2.22656 21.2637 2.22656 19C2.22656 16.7363 2.67187 14.5395 3.54023 12.4688C4.38633 10.4723 5.59609 8.67617 7.13242 7.13984C8.68359 5.59609 10.4723 4.38633 12.4688 3.54023C14.5395 2.67187 16.7363 2.22656 19 2.22656C21.2637 2.22656 23.4605 2.67187 25.5312 3.54023C27.5277 4.38633 29.3238 5.59609 30.8602 7.13242C32.4039 8.67617 33.6137 10.4648 34.4523 12.4613C35.3281 14.5246 35.766 16.7215 35.766 18.9926C35.766 21.2563 35.3207 23.4531 34.4523 25.5238C33.6063 27.5203 32.3965 29.3164 30.8602 30.8527Z" fill="black"/>
<path d="M24.8336 9.5H13.1812C11.1551 9.5 9.50742 11.1477 9.50742 13.1738V17.0555V24.8336C9.50742 26.8598 11.1551 28.5074 13.1812 28.5074H24.8336C26.8598 28.5074 28.5074 26.8598 28.5074 24.8336V17.048V13.1664C28.5 11.1477 26.8523 9.5 24.8336 9.5ZM25.8875 11.6895H26.3105V12.1051V14.9105L23.0969 14.918L23.0894 11.6969L25.8875 11.6895ZM16.291 17.048C16.8996 16.2094 17.8867 15.6527 19 15.6527C20.1133 15.6527 21.1004 16.202 21.709 17.048C22.1098 17.5973 22.3398 18.2727 22.3398 19C22.3398 20.8406 20.8406 22.3473 18.9926 22.3473C17.1445 22.3473 15.6602 20.8406 15.6602 19C15.6602 18.2727 15.8977 17.5973 16.291 17.048ZM26.6519 24.8262C26.6519 25.8281 25.8355 26.6445 24.8336 26.6445H13.1812C12.1793 26.6445 11.3629 25.8281 11.3629 24.8262V17.048H14.198C13.9531 17.6492 13.8121 18.3098 13.8121 19C13.8121 21.8648 16.1426 24.1953 19.0074 24.1953C21.8723 24.1953 24.2027 21.8648 24.2027 19C24.2027 18.3098 24.0617 17.6492 23.8168 17.048H26.6519V24.8262Z" fill="black"/>
</svg>
