<svg width="38" height="38" viewBox="0 0 38 38" fill="none" xmlns="http://www.w3.org/2000/svg">
<path d="M19 0C8.50547 0 0 8.50547 0 19C0 29.4945 8.50547 38 19 38C29.4945 38 38 29.4945 38 19C38 8.50547 29.4945 0 19 0ZM30.8602 30.8527C29.3164 32.3965 27.5277 33.6062 25.5312 34.4449C23.468 35.3207 21.2711 35.7586 19 35.7586C16.7363 35.7586 14.5395 35.3133 12.4688 34.4449C10.4723 33.5988 8.67617 32.3891 7.13984 30.8527C5.59609 29.309 4.38633 27.5203 3.54766 25.5238C2.67188 23.4605 2.22656 21.2637 2.22656 19C2.22656 16.7363 2.67187 14.5395 3.54023 12.4688C4.38633 10.4723 5.59609 8.67617 7.13242 7.13984C8.68359 5.59609 10.4723 4.38633 12.4688 3.54023C14.5395 2.67187 16.7363 2.22656 19 2.22656C21.2637 2.22656 23.4605 2.67187 25.5312 3.54023C27.5277 4.38633 29.3238 5.59609 30.8602 7.13242C32.4039 8.67617 33.6137 10.4648 34.4523 12.4613C35.3281 14.5246 35.766 16.7215 35.766 18.9926C35.766 21.2563 35.3207 23.4531 34.4523 25.5238C33.6063 27.5203 32.3965 29.3164 30.8602 30.8527Z" fill="black"/>
<path d="M13.6859 15.0961H9.98242V26.9488H13.6859V15.0961Z" fill="black"/>
<path d="M11.7563 9.5C10.3906 9.5 9.49258 10.3832 9.49258 11.5559C9.49258 12.7063 10.3609 13.6117 11.7043 13.6117H11.734C13.1293 13.6117 13.9977 12.6988 13.9902 11.5559C13.9606 10.3832 13.1219 9.5 11.7563 9.5Z" fill="black"/>
<path d="M23.802 14.9848C21.6793 14.9848 20.3508 16.1426 20.1059 16.959V15.0961H15.9422C15.9942 16.0832 15.9422 26.9488 15.9422 26.9488H20.1059V20.5437C20.1059 20.1801 20.091 19.8238 20.1949 19.5715C20.477 18.859 21.093 18.1168 22.1988 18.1168C23.6461 18.1168 24.2992 19.2152 24.2992 20.8184V26.9488H28.5V20.3582C28.5 16.6918 26.4367 14.9848 23.802 14.9848Z" fill="black"/>
</svg>
