<svg width="20" height="27" viewBox="0 0 20 27" fill="none" xmlns="http://www.w3.org/2000/svg">
<path d="M1.78813 1.13605C-0.00412509 2.33071 -0.356209 6.06501 0.320448 9.10857C0.847428 11.4787 1.96782 14.6581 3.85708 17.652C5.63436 20.4685 8.11393 22.9939 10.0046 24.4551C12.4325 26.3313 15.8936 27.5238 17.6859 26.3292C18.5921 25.7251 19.9386 24.0746 20 23.7785C20 23.7785 19.2104 22.5273 19.0372 22.2527L16.3894 18.0568C16.1927 17.745 14.9588 18.03 14.332 18.3949C13.4864 18.8873 12.7077 20.2084 12.7077 20.2084C12.128 20.5527 11.6424 20.2097 10.6277 19.7298C9.38073 19.1401 7.97872 17.3079 6.86286 15.6484C5.8437 13.9245 4.78775 11.8616 4.77247 10.4509C4.75988 9.30304 4.6532 8.70749 5.19552 8.30379C5.19552 8.30379 6.68679 8.11184 7.46906 7.51922C8.04887 7.07981 8.80525 6.03815 8.6085 5.72629L5.96077 1.53043C5.7875 1.25585 4.99795 0.00464333 4.99795 0.00464333C4.70975 -0.0584512 2.6944 0.531967 1.78813 1.13605Z" fill="#EBEBEB"/>
</svg>
