<svg width="30" height="29" viewBox="0 0 30 29" fill="none" xmlns="http://www.w3.org/2000/svg">
<path d="M14.6682 0C6.60085 0 0.0625 6.49102 0.0625 14.5C0.0625 22.509 6.60085 29 14.6682 29C22.7356 29 29.274 22.509 29.274 14.5C29.274 6.49102 22.7356 0 14.6682 0ZM23.7854 23.5455C22.5987 24.7236 21.2237 25.6469 19.6889 26.2869C18.1029 26.9553 16.4141 27.2895 14.6682 27.2895C12.9281 27.2895 11.2393 26.9496 9.64751 26.2869C8.11277 25.6412 6.73207 24.718 5.55106 23.5455C4.36434 22.3674 3.43437 21.0023 2.78966 19.4787C2.11643 17.9041 1.77411 16.2275 1.77411 14.5C1.77411 12.7725 2.11643 11.0959 2.78396 9.51562C3.43437 7.99199 4.36434 6.62129 5.54535 5.44883C6.73777 4.2707 8.11277 3.34746 9.64751 2.70176C11.2393 2.03906 12.9281 1.69922 14.6682 1.69922C16.4084 1.69922 18.0972 2.03906 19.6889 2.70176C21.2237 3.34746 22.6044 4.2707 23.7854 5.44316C24.9721 6.62129 25.9021 7.98633 26.5468 9.50996C27.22 11.0846 27.5566 12.7611 27.5566 14.4943C27.5566 16.2219 27.2143 17.8984 26.5468 19.4787C25.8964 21.0023 24.9664 22.373 23.7854 23.5455Z" fill="#EBEBEB"/>
</svg>
